<svg width="24" height="24" viewBox="0 0 14 14" fill="none" xmlns="http://www.w3.org/2000/svg">
                        <g clip-path="url(#clip0_1_121)">
                            <path
                                d="M7.39238 4.51509C5.77754 4.51509 4.475 5.81763 4.475 7.43247C4.475 9.04731 5.77754 10.3499 7.39238 10.3499C9.00723 10.3499 10.3098 9.04731 10.3098 7.43247C10.3098 5.81763 9.00723 4.51509 7.39238 4.51509ZM7.39238 9.32915C6.34883 9.32915 5.4957 8.47856 5.4957 7.43247C5.4957 6.38638 6.34629 5.53579 7.39238 5.53579C8.43848 5.53579 9.28906 6.38638 9.28906 7.43247C9.28906 8.47856 8.43594 9.32915 7.39238 9.32915ZM11.1096 4.39575C11.1096 4.77407 10.8049 5.07622 10.4291 5.07622C10.0508 5.07622 9.74863 4.77153 9.74863 4.39575C9.74863 4.01997 10.0533 3.71528 10.4291 3.71528C10.8049 3.71528 11.1096 4.01997 11.1096 4.39575ZM13.0418 5.08638C12.9986 4.17485 12.7904 3.36743 12.1227 2.7022C11.4574 2.03696 10.65 1.82876 9.73848 1.78306C8.79902 1.72973 5.9832 1.72973 5.04375 1.78306C4.13477 1.82622 3.32734 2.03442 2.65957 2.69966C1.9918 3.36489 1.78613 4.17231 1.74043 5.08384C1.68711 6.02329 1.68711 8.83911 1.74043 9.77856C1.78359 10.6901 1.9918 11.4975 2.65957 12.1627C3.32734 12.828 4.13223 13.0362 5.04375 13.0819C5.9832 13.1352 8.79902 13.1352 9.73848 13.0819C10.65 13.0387 11.4574 12.8305 12.1227 12.1627C12.7879 11.4975 12.9961 10.6901 13.0418 9.77856C13.0951 8.83911 13.0951 6.02583 13.0418 5.08638ZM11.8281 10.7866C11.6301 11.2842 11.2467 11.6676 10.7465 11.8682C9.99746 12.1653 8.22012 12.0967 7.39238 12.0967C6.56465 12.0967 4.78477 12.1627 4.03828 11.8682C3.54062 11.6702 3.15723 11.2868 2.95664 10.7866C2.65957 10.0375 2.72813 8.2602 2.72813 7.43247C2.72813 6.60473 2.66211 4.82485 2.95664 4.07837C3.15469 3.58071 3.53809 3.19731 4.03828 2.99673C4.7873 2.69966 6.56465 2.76821 7.39238 2.76821C8.22012 2.76821 10 2.7022 10.7465 2.99673C11.2441 3.19477 11.6275 3.57817 11.8281 4.07837C12.1252 4.82739 12.0566 6.60473 12.0566 7.43247C12.0566 8.2602 12.1252 10.0401 11.8281 10.7866Z"
                                fill="white" />
                        </g>
                        <defs>
                            <clipPath id="clip0_1_121">
                                <rect width="13" height="13" fill="white" transform="translate(0.889893 0.935005)" />
                            </clipPath>
                        </defs>
                    </svg>