 <svg width="24" height="24" viewBox="0 0 14 14" fill="none" xmlns="http://www.w3.org/2000/svg">
                        <g clip-path="url(#clip0_1_124)">
                            <path
                                d="M11.6549 1.74751H1.90237C1.45549 1.74751 1.09241 2.11567 1.09241 2.56762V12.3024C1.09241 12.7543 1.45549 13.1225 1.90237 13.1225H11.6549C12.1018 13.1225 12.4674 12.7543 12.4674 12.3024V2.56762C12.4674 2.11567 12.1018 1.74751 11.6549 1.74751ZM4.5303 11.4975H2.84436V6.06899H4.53284V11.4975H4.5303ZM3.68733 5.32758C3.14651 5.32758 2.70979 4.88833 2.70979 4.35004C2.70979 3.81176 3.14651 3.37251 3.68733 3.37251C4.22561 3.37251 4.66487 3.81176 4.66487 4.35004C4.66487 4.89086 4.22815 5.32758 3.68733 5.32758ZM10.85 11.4975H9.16409V8.85688C9.16409 8.22719 9.15139 7.41723 8.28811 7.41723C7.40959 7.41723 7.27502 8.10278 7.27502 8.81118V11.4975H5.58909V6.06899H7.20647V6.8104H7.22932C7.4553 6.38383 8.00627 5.93442 8.82639 5.93442C10.5326 5.93442 10.85 7.05922 10.85 8.52172V11.4975Z"
                                fill="white" />
                        </g>
                        <defs>
                            <clipPath id="clip0_1_124">
                                <rect width="13" height="13" fill="white" transform="translate(0.279907 0.935005)" />
                            </clipPath>
                        </defs>
                    </svg>