<svg width="14" height="14" viewBox="0 0 14 14" fill="none" xmlns="http://www.w3.org/2000/svg">
<g clip-path="url(#clip0_1_118)">
<path d="M13.2969 7.43501C13.2969 3.95649 10.4785 1.13813 7 1.13813C3.52148 1.13813 0.703125 3.95649 0.703125 7.43501C0.703125 10.5779 3.0058 13.1829 6.01611 13.6557V9.25526H4.4165V7.43501H6.01611V6.04766C6.01611 4.46963 6.95557 3.59797 8.39445 3.59797C9.08356 3.59797 9.80414 3.72086 9.80414 3.72086V5.26969H9.00992C8.22789 5.26969 7.98389 5.75516 7.98389 6.25307V7.43501H9.73025L9.45096 9.25526H7.98389V13.6557C10.9942 13.1829 13.2969 10.5779 13.2969 7.43501Z" fill="black"/>
</g>
<defs>
<clipPath id="clip0_1_118">
<rect width="13" height="13" fill="white" transform="translate(0.5 0.935005)"/>
</clipPath>
</defs>
</svg>
